<?xml version="1.0" encoding="UTF-8" standalone="no"?>
<!-- Created with Inkscape (http://www.inkscape.org/) -->

<svg
   xmlns:dc="http://purl.org/dc/elements/1.1/"
   xmlns:cc="http://creativecommons.org/ns#"
   xmlns:rdf="http://www.w3.org/1999/02/22-rdf-syntax-ns#"
   xmlns:svg="http://www.w3.org/2000/svg"
   xmlns="http://www.w3.org/2000/svg"
   xmlns:sodipodi="http://sodipodi.sourceforge.net/DTD/sodipodi-0.dtd"
   xmlns:inkscape="http://www.inkscape.org/namespaces/inkscape"
   width="584.28571"
   height="271.04297"
   id="svg2"
   version="1.1"
   inkscape:version="0.48.5 r10040"
   sodipodi:docname="New document 1">
  <defs
     id="defs4" />
  <sodipodi:namedview
     id="base"
     pagecolor="#ffffff"
     bordercolor="#666666"
     borderopacity="1.0"
     inkscape:pageopacity="0.0"
     inkscape:pageshadow="2"
     inkscape:zoom="1.4"
     inkscape:cx="399.97336"
     inkscape:cy="131.14375"
     inkscape:document-units="px"
     inkscape:current-layer="layer1"
     showgrid="false"
     inkscape:window-width="1662"
     inkscape:window-height="1307"
     inkscape:window-x="1"
     inkscape:window-y="0"
     inkscape:window-maximized="0"
     fit-margin-top="0"
     fit-margin-left="0"
     fit-margin-right="0"
     fit-margin-bottom="0" />
  <metadata
     id="metadata7">
    <rdf:RDF>
      <cc:Work
         rdf:about="">
        <dc:format>image/svg+xml</dc:format>
        <dc:type
           rdf:resource="http://purl.org/dc/dcmitype/StillImage" />
        <dc:title></dc:title>
      </cc:Work>
    </rdf:RDF>
  </metadata>
  <g
     inkscape:label="Layer 1"
     inkscape:groupmode="layer"
     id="layer1"
     transform="translate(-70.689045,-258.38484)">
    <path
       style="fill:#000000"
       d="m 518.47476,527.94085 c 1.65,-0.80619 4.125,-1.44004 5.5,-1.40854 2.3009,0.0527 2.26108,0.1227 -0.5,0.879 -7.25931,1.98845 -8.18699,2.0867 -5,0.52954 z m 16.5,0.43217 c 0,-0.61787 1.53443,-0.76645 3.94104,-0.38162 2.16757,0.34661 5.36776,0.13284 7.11154,-0.47505 2.76483,-0.96382 3.01261,-0.91499 1.93652,0.38163 -1.42725,1.71973 -12.9891,2.14258 -12.9891,0.47504 z m -23,-2.42916 c 0,-0.85746 0.45,-1.55902 1,-1.55902 0.55,0 1,0.42344 1,0.94098 0,0.51754 -0.45,1.2191 -1,1.55902 -0.55,0.33992 -1,-0.0835 -1,-0.94098 z m 43.40747,-1.42886 c 1.68664,-1.8884 1.76938,-2.59651 0.71474,-6.11658 -0.65599,-2.18952 -2.08946,-4.46087 -3.18547,-5.04744 -1.09602,-0.58657 -1.75193,-1.45615 -1.45759,-1.9324 0.90393,-1.4626 -1.07069,-5.35617 -4.83943,-9.54239 -1.97633,-2.19524 -3.60376,-4.35226 -3.61652,-4.79337 -0.0128,-0.44111 -1.36324,-1.26916 -3.00108,-1.84011 -2.91458,-1.01603 -5.00097,-5.21991 -5.01654,-10.10787 -0.003,-0.9625 -0.3673,-1.75 -0.80941,-1.75 -1.82961,0 -7.04185,6.75144 -7.72019,10 -0.40196,1.925 -2.04625,5.33796 -3.65397,7.58435 -1.60772,2.24639 -3.04183,5.17139 -3.1869,6.5 -0.38089,3.48809 -4.96889,14.91565 -5.98843,14.91565 -0.47492,0 -0.589,-1.09369 -0.2535,-2.43042 0.67154,-2.67562 -3.20317,-12.65901 -7.20714,-18.56958 -2.18795,-3.2298 -2.33033,-4.2063 -1.84428,-12.6491 0.28969,-5.032 0.29305,-9.38276 0.007,-9.66834 -0.28558,-0.28559 -1.71849,-0.1432 -3.18423,0.31642 -1.46575,0.45962 -3.90249,1.10645 -5.41499,1.4374 -2.39304,0.52362 -2.75413,1.08602 -2.7818,4.33267 -0.0283,3.31647 -0.17939,3.53654 -1.36025,1.98095 -1.59481,-2.1015 -3.60749,-2.29554 -3.60749,-0.34783 0,0.7712 1.36767,1.87895 3.03928,2.46168 2.20542,0.76881 3.59145,2.30778 5.05189,5.60935 2.3086,5.21898 1.9672,6.3928 -1.85855,6.39015 -1.50294,-0.001 -3.63262,0.19067 -4.73262,0.42602 -1.1,0.23536 -4.22178,0.15403 -6.93729,-0.18072 -4.759,-0.58667 -4.9516,-0.73503 -5.33384,-4.10865 -0.51125,-4.51231 -1.22887,-5.22807 -1.22887,-1.22568 0,3.57494 -1.26583,4.81522 -2.90215,2.84358 -0.7647,-0.92141 -0.82169,-2.12737 -0.1767,-3.73899 0.85571,-2.13811 0.96858,-2.17647 1.11514,-0.37891 0.13822,1.69521 0.28508,1.61901 0.96371,-0.5 1.12176,-3.50269 1.15679,-5.21494 0.0933,-4.55764 -0.49871,0.30822 -0.67122,-0.34022 -0.38337,-1.44098 0.3708,-1.41809 1.36367,-2.00138 3.4067,-2.00138 2.16238,0 2.88337,-0.47335 2.88337,-1.89301 0,-1.76893 -1.8081,-3.10699 -4.19842,-3.10699 -0.56916,0 -0.79949,0.9 -0.51183,2 0.28766,1.1 0.11514,2 -0.38337,2 -0.49851,0 -0.90638,-1.125 -0.90638,-2.5 0,-2.4376 -0.18095,-2.49978 -7.25,-2.49106 -3.9875,0.005 -14.61551,0.4569 -23.61781,1.00441 -15.7029,0.95504 -16.50072,1.10701 -19.6398,3.74106 -2.95646,2.48082 -3.22266,3.14552 -2.76037,6.89272 0.45063,3.65266 0.19925,4.3518 -2.10838,5.86381 -1.96131,1.2851 -3.68894,1.55002 -6.87182,1.05375 -6.06245,-0.94527 -8.11403,-2.34844 -12.60665,-8.62231 l -3.97562,-5.5519 -12.0258,-1.29299 c -15.98134,-1.71827 -140.2932,7.83036 -151.47094,11.60868 -4.6621,1.57589 -161.474285,3.57955 -161.646115,-4.99188 -0.0034,-0.17179 -0.31241,-51.975 -0.31241,-115.5 l 0,-115.5 424.285715,-0.71429 160,0 0,102.93261 c 0,99.53931 -0.0614,102.95211 -1.86341,103.52404 -1.02487,0.32528 -5.63737,0.62656 -10.25,0.66951 -4.61262,0.0429 -15.00754,0.66933 -23.09982,1.39196 -8.09227,0.72263 -15.62077,1.07655 -16.72999,0.78648 -1.10921,-0.29007 -3.71904,0.35988 -5.79961,1.44434 -3.55788,1.85447 -10.47663,2.36494 -11.95921,0.88236 -1.51169,-1.51169 -2.50356,-0.40931 -1.98129,2.20203 0.40418,2.02093 0.16922,2.83334 -0.81945,2.83334 -0.76236,0 -1.35782,-0.2625 -1.32324,-0.58334 0.18495,-1.71623 -0.2746,-3.08333 -1.03647,-3.08333 -1.00563,0 -0.68722,4.2855 0.46012,6.19287 0.63972,1.06347 0.4942,1.07064 -0.78067,0.0384 -1.34745,-1.09098 -1.56696,-0.89813 -1.56696,1.37663 0,1.45493 0.61598,3.82585 1.36884,5.2687 1.90005,3.64146 1.72105,5.1234 -0.61884,5.1234 -1.37677,0 -2,0.66667 -2,2.1394 0,2.77751 -5.21153,11.32771 -9.84467,16.15148 -3.03722,3.16219 -3.39348,3.95435 -2.1482,4.77657 1.79495,1.18514 11.87842,0.69874 21.48529,-1.03641 7.8453,-1.41698 20.69786,-0.94793 22.8446,0.8337 0.77522,0.64337 2.02902,0.94967 2.78623,0.68067 1.93696,-0.68811 5.2404,2.06456 4.57102,3.80892 -0.79688,2.07665 -8.10689,3.38959 -25.75842,4.62642 -13.52261,0.94753 -29.28409,3.05489 -35.43585,4.73789 -1.97223,0.53956 -1.97352,0.51751 -0.0925,-1.58848 z m -38.00082,-28.12435 c -1.53542,-2.82106 -3.83004,-6.24963 -5.09916,-7.61903 -2.66559,-2.87622 -2.94365,-4.38678 -0.80749,-4.38678 0.825,0 1.5,0.45 1.5,1 0,0.55 0.7301,1 1.62244,1 1.34023,0 1.40241,-0.26513 0.3575,-1.52417 -1.97114,-2.37507 -0.66723,-2.63643 3.36595,-0.67466 2.2844,1.11115 5.0791,1.63087 7.34638,1.36618 l 3.65937,-0.42721 -2.92582,-1.51543 c -1.6092,-0.83349 -3.19671,-1.93129 -3.5278,-2.43958 -0.33108,-0.50828 -3.16914,-1.06681 -6.30678,-1.24117 -4.08744,-0.22714 -6.13248,-0.84534 -7.21329,-2.18049 -1.37452,-1.69799 -1.45496,-1.37505 -0.90573,3.63653 0.34803,3.17566 1.43494,6.55652 2.57191,8 1.08303,1.375 3.37068,4.88298 5.08366,7.79552 3.94922,6.71476 5.00759,6.06121 1.27886,-0.78971 z m -34.30608,-1.06817 c -0.92404,-2.3131 -0.97704,-2.32686 -1.03718,-0.26943 -0.0349,1.19252 0.26082,2.99252 0.65707,4 0.5927,1.50697 0.77662,1.55475 1.03718,0.26943 0.17421,-0.8593 -0.12147,-2.6593 -0.65707,-4 z m 5.52853,3.1695 c 1.22156,1.01381 1.28137,0.78758 0.40275,-1.52336 -1.5158,-3.98686 -1.18648,-4.51711 0.67311,-1.08378 2.07639,3.8336 2.7947,1.91795 0.93726,-2.49959 -1.49168,-3.54767 -4.61729,-4.99227 -4.67766,-2.16193 -0.0251,1.17966 -0.44989,0.93649 -1.46456,-0.83848 -1.72909,-3.02473 -1.91954,-1.50193 -0.36858,2.94715 0.85662,2.4573 1.36203,2.91859 2.08088,1.89922 0.65025,-0.92207 0.77891,-0.40094 0.40827,1.65363 -0.29766,1.65 -0.2903,2.41872 0.0164,1.70826 0.43428,-1.00612 0.87477,-1.02848 1.99217,-0.10112 z m 5.3709,-4.10714 c -1.17674,-2.3066 -2.33552,-3.99782 -2.57507,-3.75827 -0.23955,0.23955 0.57308,2.27693 1.80584,4.5275 2.91585,5.32329 3.55257,4.68657 0.76923,-0.76923 z m -12.68937,-0.25 c 0.5523,-4.08961 -0.97202,-7.85604 -2.02104,-4.99377 -0.25323,0.69093 -0.94222,0.95846 -1.5311,0.59451 -0.72419,-0.44758 -0.85836,0.3999 -0.41459,2.61877 0.36086,1.80427 0.6561,3.89924 0.6561,4.65549 0,0.75625 0.61575,1.375 1.36833,1.375 0.8531,0 1.58445,-1.60029 1.9423,-4.25 z m -2.23168,0.66667 c 0.048,-1.16495 0.28494,-1.4019 0.60416,-0.60417 0.28887,0.72187 0.25335,1.58437 -0.0789,1.91667 -0.3323,0.33229 -0.56864,-0.25834 -0.52522,-1.3125 z m 90.87521,1.49768 c -0.61391,-1.1471 -1.36887,-1.83298 -1.67768,-1.52416 -0.30882,0.30881 0.008,1.24735 0.70346,2.08564 1.79782,2.16624 2.28407,1.88599 0.97422,-0.56148 z m -150.15416,-0.11435 c 2.05991,-2.05992 1.36985,-3.63262 -4.3,-9.8 -4.9101,-5.34096 -7.21071,-9.17531 -4.5,-7.5 0.55,0.33992 1,-0.33982 1,-1.51053 0,-1.63684 -0.51979,-2.05365 -2.25,-1.80425 -3.13064,0.45126 -6.38041,-2.89436 -7.70788,-7.93522 -0.61557,-2.3375 -1.34568,-4.25 -1.62248,-4.25 -0.2768,0 -1.32471,0.7875 -2.32869,1.75 -2.51431,2.41042 -4.31186,8.46645 -3.53195,11.89931 0.72726,3.20116 9.12843,16.30898 11.441,17.85069 3.56669,2.3778 11.93398,3.16602 13.8,1.3 z m -3.43264,-3.25849 c -0.62296,-1.34359 -0.89245,-2.68308 -0.59888,-2.97666 0.68645,-0.68645 3.15802,2.5463 3.19972,4.18515 0.0526,2.06814 -1.39309,1.39638 -2.60084,-1.20849 z m -6.86736,-8.82946 c -4.53215,-6.36321 -4.27951,-6.73725 0.85689,-1.26864 5.11171,5.44232 5.19222,5.57326 3.39311,5.51864 -0.6875,-0.0209 -2.6,-1.93337 -4.25,-4.25 z m 156.195,8.99676 c 1.20726,-0.67117 3.89834,-3.21027 5.98018,-5.64244 3.05408,-3.56801 3.90887,-5.49836 4.4256,-9.99425 0.35223,-3.06466 1.2497,-7.04097 1.99438,-8.83623 1.28081,-3.08775 1.20629,-3.40105 -1.37942,-5.79865 -3.4771,-3.22415 -6.17241,-7.3139 -5.35733,-8.12898 0.34613,-0.34613 1.53209,0.18765 2.63546,1.18619 2.1911,1.98292 2.67454,0.94414 0.72433,-1.55642 -1.76753,-2.26632 -4.91695,-3.23449 -5.81179,-1.7866 -0.58857,0.95233 -1.64565,0.92472 -4.82995,-0.12619 -2.24205,-0.73995 -4.07646,-1.75366 -4.07646,-2.25269 0,-0.49903 0.89717,-0.62258 1.99371,-0.27455 1.58958,0.50452 1.85997,0.28427 1.33394,-1.08655 -0.57915,-1.50924 -0.13869,-1.64944 3.60458,-1.14737 4.51413,0.60548 8.60288,3.6276 9.66552,7.14409 0.34767,1.15051 1.54419,3.08874 2.65895,4.30718 1.11476,1.21845 2.07554,3.57992 2.13507,5.24772 0.0595,1.6678 0.41917,3.0334 0.79921,3.03465 1.41523,0.005 1.69673,-1.76611 0.80801,-5.08272 -0.50331,-1.87825 -1.14086,-4.54 -1.4168,-5.915 -0.70231,-3.49961 -7.4866,-11 -9.94978,-11 -1.4612,0 -1.72744,-0.30497 -0.94731,-1.0851 1.97647,-1.97647 9.05682,2.74515 11.65411,7.77169 2.39416,4.63339 3.80707,5.12152 3.30662,1.14236 -0.8085,-6.42852 -6.23389,-15.56138 -9.44735,-15.90326 -3.53533,-0.37612 -5.71564,-1.23278 -6.85308,-2.69263 -1.20765,-1.54997 -1.28894,-1.55605 -0.76943,-0.0575 0.38281,1.10421 -0.29834,2.25165 -1.99755,3.36501 -2.53555,1.66136 -3.59259,5.45943 -1.5194,5.45943 0.58246,0 0.77636,0.45734 0.4309,1.01631 -0.34546,0.55897 -1.04702,0.75742 -1.55902,0.44098 -0.51199,-0.31643 -0.9309,0.12623 -0.9309,0.98369 0,0.87911 -0.85055,1.55902 -1.95031,1.55902 -1.07267,0 -2.31017,0.58508 -2.75,1.30018 -0.43983,0.7151 -2.27462,2.32959 -4.07732,3.58777 -1.8027,1.25817 -4.38936,4.48148 -5.74814,7.1629 -1.35878,2.68143 -3.82283,6.41553 -5.47567,8.29801 -5.39224,6.14142 -7.08473,12.97031 -5.35637,21.61209 0.8077,4.03852 2.46879,4.6888 6.76704,2.64915 1.86617,-0.88556 5.12502,-1.63862 7.2419,-1.67349 3.70205,-0.061 3.75351,-0.1075 1.34887,-1.22002 -2.34647,-1.08561 -2.20679,-1.17726 2.27453,-1.49241 2.66412,-0.18735 4.5166,-0.75312 4.19099,-1.27997 -0.32096,-0.51932 0.0699,-0.94421 0.86847,-0.94421 1.94161,0 2.97284,2.92536 1.61008,4.56739 -0.59973,0.72264 -2.295,1.47555 -3.76725,1.67314 -2.60164,0.34916 -2.57852,0.39042 0.82318,1.46917 4.48454,1.42214 4.1353,1.42219 6.695,-8.9e-4 z m 6.055,-53.00823 c -2.30899,-0.9124 -3.82998,-2.70058 -2.29705,-2.70058 1.27583,0 5.54705,2.43359 5.54705,3.16052 0,0.46171 -0.1125,0.79161 -0.25,0.7331 -0.1375,-0.0585 -1.4875,-0.59538 -3,-1.19304 z m 1.25,52.29942 c 0,-0.55 -0.47656,-1 -1.05902,-1 -0.58246,0 -0.7809,0.45 -0.44098,1 0.33992,0.55 0.81648,1 1.05902,1 0.24254,0 0.44098,-0.45 0.44098,-1 z m 3.21649,-5.18351 c -1.35127,-1.35127 -2.58908,0.77227 -1.73785,2.9814 0.60457,1.56899 0.73691,1.55771 1.69223,-0.14427 0.68447,-1.21943 0.69996,-2.18279 0.0456,-2.83713 z m 2.81436,-1.75885 c -0.62216,-1.16251 -1.58793,-1.83138 -2.14617,-1.48637 -0.62576,0.38674 -0.35322,1.3585 0.71071,2.53414 2.14215,2.36705 2.94815,1.77873 1.43546,-1.04777 z m -159.35163,0.54881 c -0.63065,-1.64345 3.60604,-5.97252 4.76178,-4.8656 0.43595,0.41753 0.48511,-0.67696 0.10924,-2.4322 -0.38661,-1.80541 -0.20492,-4.08537 0.41837,-5.25 0.60597,-1.13226 0.74842,-2.06216 0.31657,-2.06645 -0.43185,-0.004 -1.3326,-1.18705 -2.00167,-2.62836 -0.94547,-2.03673 -0.95037,-3.09322 -0.022,-4.7422 l 1.19451,-2.12164 0.33428,2.19471 c 0.21784,1.43017 0.83512,2.00252 1.77198,1.64301 0.96993,-0.3722 1.4377,0.13384 1.4377,1.55529 0,1.15885 -0.34512,2.10699 -0.76693,2.10699 -0.42181,0 -0.81413,1.8 -0.87182,4 -0.0577,2.2 0.0624,4 0.26693,4 1.5689,0 4.13496,-4.18974 3.66553,-5.98487 -0.41686,-1.59405 -0.0214,-2.27359 1.56462,-2.68833 1.71539,-0.44859 2.00151,-1.06061 1.49174,-3.19092 -0.34691,-1.44974 -1.2426,-3.85103 -1.99041,-5.33622 -1.79579,-3.56652 -1.71601,-4.3403 0.27697,-2.68627 2.2388,1.85804 5.36337,9.41376 5.36337,12.96952 0,1.6044 0.34838,2.91709 0.77418,2.91709 0.4258,0 0.7633,-2.04808 0.75,-4.55129 -0.0205,-3.85248 0.24516,-4.48085 1.72999,-4.09253 2.02408,0.52935 3.26169,-2.87728 2.49755,-6.87466 -0.87957,-4.60117 1.05185,-2.5268 2.34492,2.51848 1.48913,5.8103 2.50792,6.29259 3.69667,1.75 0.97114,-3.71104 -0.4428,-10.74194 -2.16495,-10.76531 -0.6206,-0.008 -0.47761,-0.42703 0.31776,-0.93023 0.87734,-0.55506 2.12975,-0.54904 3.18426,0.0153 2.51349,1.34519 3.86962,1.14551 3.86962,-0.56976 0,-0.825 0.41968,-1.5 0.93261,-1.5 0.51294,0 1.22578,-0.92369 1.5841,-2.05265 0.52031,-1.63936 0.93657,-1.81605 2.06739,-0.87755 0.88993,0.73857 1.4159,0.78962 1.4159,0.13741 0,-1.57252 -11.92698,-10.20721 -14.09908,-10.20721 -1.04551,0 -1.90092,0.43588 -1.90092,0.96862 0,0.53273 -0.675,0.70959 -1.5,0.39301 -0.825,-0.31659 -1.5,-0.0775 -1.5,0.53138 0,0.60885 -0.675,1.10699 -1.5,1.10699 -0.825,0 -1.5,0.45 -1.5,1 0,0.55 -0.675,1 -1.5,1 -0.84545,0 -1.5,0.89441 -1.5,2.04966 0,3.03659 -2.82663,7.95034 -4.57343,7.95034 -0.83714,0 -2.64282,1.20931 -4.01262,2.68735 -1.90802,2.05878 -2.34607,3.34524 -1.8728,5.5 0.94756,4.31423 -1.06699,3.33863 -2.41811,-1.17103 -1.32661,-4.4278 -2.72909,-5.45351 -8.70099,-6.36352 -3.62439,-0.5523 -4.39594,-0.28949 -6.93709,2.3629 l -2.85914,2.9843 2.7828,0 c 3.81745,0 8.10213,2.72371 9.24702,5.87821 l 0.95155,2.62179 1.54915,-2.89277 c 0.85204,-1.59102 1.81871,-2.45661 2.14817,-1.92354 1.03107,1.6683 -0.43464,5.22284 -2.41248,5.85058 -1.04062,0.33028 -1.89203,1.26753 -1.89203,2.08278 0,0.81525 -0.72191,2.87828 -1.60424,4.58452 -1.47231,2.84715 -1.47231,3.17608 0,4.00003 0.93797,0.52492 1.60424,2.19423 1.60424,4.01935 0,1.71686 0.74474,3.9445 1.65499,4.95031 1.9737,2.18091 2.75891,2.34973 2.02423,0.43519 z m -4.17922,-28.60645 c 0.33992,-0.55 1.06803,-1 1.61803,-1 0.55,0 0.72189,0.45 0.38197,1 -0.33992,0.55 -1.06803,1 -1.61803,1 -0.55,0 -0.72189,-0.45 -0.38197,-1 z m 19.5,-8.05902 c 0,-0.58246 0.45,-0.7809 1,-0.44098 0.55,0.33992 1,0.81648 1,1.05902 0,0.24254 -0.45,0.44098 -1,0.44098 -0.55,0 -1,-0.47656 -1,-1.05902 z m 3,-4.24018 c 0,-0.89539 1.08535,-1.17249 3.49198,-0.89153 4.12595,0.48168 3.6961,2.19073 -0.551,2.19073 -1.74552,0 -2.94098,-0.5281 -2.94098,-1.2992 z m 48.3913,40.87652 c -0.90769,-2.36541 -3.3913,-2.76522 -3.3913,-0.54594 0,1.29149 0.67713,1.96862 1.96862,1.96862 1.29148,0 1.78083,-0.48935 1.42268,-1.42268 z m 4.37953,-3.76482 c -0.61807,-1.85422 -2.77083,-2.16176 -2.77083,-0.39583 0,0.87083 0.7125,1.58333 1.58333,1.58333 0.87084,0 1.40521,-0.53438 1.1875,-1.1875 z m -4.63447,-1.3125 c 0.55208,-6.07289 0.25887,-7.99279 -1.26551,-8.28636 -1.72457,-0.33212 -2.68953,3.19993 -2.05894,7.53636 0.3631,2.49692 3.10932,3.11647 3.32445,0.75 z m -5.13636,-5.5 c 0,-5.48763 -1.04534,-6.39067 -2.83948,-2.45295 -2.04543,4.48923 -1.33,7.01406 2.08948,7.374 0.4125,0.0434 0.75,-2.17105 0.75,-4.92105 z m 50.75,2.27153 c -2.0625,-0.21574 -5.4375,-0.21574 -7.5,0 -2.0625,0.21575 -0.375,0.39226 3.75,0.39226 4.125,0 5.8125,-0.17651 3.75,-0.39226 z m -13.5,-2.46597 c -2.36849,-2.36849 -3.68271,-2.09677 -2.66655,0.55131 0.34679,0.90372 1.58238,1.64313 2.74576,1.64313 l 2.11523,0 z m -106.07874,-2.46055 c 1.33714,-1.21009 1.82874,-3.09183 1.82874,-7 0,-2.93975 -0.45,-5.34501 -1,-5.34501 -0.55,0 -1,1.75186 -1,3.89301 0,6.5136 -5.21715,5.89428 -6.19009,-0.73481 -0.3981,-2.71245 -0.0972,-3.49986 1.59988,-4.18615 1.78601,-0.72226 1.61723,-0.8545 -1.15979,-0.90866 -2.72922,-0.0532 -3.24618,0.29715 -3.22614,2.18661 0.0494,4.65474 1.95239,10.31072 4.03757,12 2.65194,2.14843 2.83703,2.15187 5.10983,0.095 z m 97.3372,-0.095 c -0.38804,-0.9625 -0.95065,-3.47636 -1.25025,-5.58636 -0.54837,-3.8621 -2.09952,-5.32225 -4.62461,-4.35328 -1.12218,0.43062 -1.1549,1.35731 -0.18305,5.18484 1.16383,4.58362 2.72643,6.45924 5.40644,6.48949 0.89615,0.0101 1.11739,-0.57899 0.65147,-1.73469 z m 21.61654,0.25 c 0.0687,-0.825 0.20886,-2.0625 0.31135,-2.75 0.28438,-1.9075 -1.46418,-3.75 -3.55879,-3.75 -2.29634,0 -2.49407,2.54945 -0.26411,3.40516 1.02338,0.39271 1.42334,1.34614 1.09362,2.60699 -0.33679,1.28792 -0.0246,1.98785 0.88655,1.98785 0.77351,0 1.46263,-0.675 1.53138,-1.5 z m -12.125,-1.50001 c 0,-0.55 -0.45,-1 -1,-1 -0.55,0 -1,0.45 -1,1 0,0.55 0.45,1 1,1 0.55,0 1,-0.45 1,-1 z m 19,-2.55902 c 0,-1.34254 -0.45,-2.44098 -1,-2.44098 -0.55,0 -1,1.37656 -1,3.05902 0,1.7847 0.41658,2.80156 1,2.44098 0.55,-0.33992 1,-1.71648 1,-3.05902 z m -49.32831,-4.85415 c -1.10605,-2.88233 -3.42259,-1.72817 -4.13311,2.05921 -0.47934,2.55509 -0.28822,3.89422 0.63871,4.47544 1.63264,1.02373 4.40522,-4.1611 3.4944,-6.53465 z m 27.49363,3.41317 c 0.22772,-1.70105 1.05374,-2.60212 2.58468,-2.81955 1.2375,-0.17575 2.25,-0.73825 2.25,-1.25 0,-0.51175 0.7875,-0.96598 1.75,-1.0094 1.04544,-0.0472 1.24674,-0.28201 0.5,-0.58333 -2.67483,-1.07932 -1.06089,-2.47758 2.5,-2.16592 3.06722,0.26844 3.92403,-0.0682 4.70584,-1.84912 0.61423,-1.39918 2.22248,-2.41398 4.5,-2.83949 3.62123,-0.67656 6.04416,-2.09354 6.04416,-3.53474 0,-0.44366 -2.57027,-1.34024 -5.71172,-1.9924 -4.37418,-0.90808 -5.80351,-0.91037 -6.10371,-0.01 -0.28083,0.8425 -0.85884,0.76249 -2.03828,-0.28214 -0.90546,-0.80196 -3.78379,-1.62022 -6.39629,-1.81833 -4.73575,-0.35914 -4.75,-0.35079 -4.75,2.78348 0,2.6288 0.45043,3.23427 2.75,3.69661 1.5125,0.3041 3.9875,0.85763 5.5,1.23008 2.11279,0.52026 2.75,0.31627 2.75,-0.88039 0,-0.85665 0.45,-1.83567 1,-2.17559 0.59723,-0.36911 1,0.85909 1,3.04939 0,3.32588 -0.21386,3.61375 -2.29643,3.09106 -3.64953,-0.91598 -8.20357,0.71287 -8.20357,2.93417 0,1.35704 -0.81175,2.01878 -2.75,2.2418 -3.00009,0.3452 -3.04561,0.45555 -2.1125,5.12108 0.69767,3.48836 1.99999,3.00536 2.52782,-0.9375 z m -60.16532,2.02713 c 0,-1.18412 -3.71108,-2.32372 -4.99105,-1.53266 -1.83184,1.13214 -1.04883,2.00246 1.99304,2.21527 1.6489,0.11536 2.99801,-0.19181 2.99801,-0.68261 z m 27.42402,-5.27713 c 0.8698,-4.89307 -0.99375,-4.96783 -2.33952,-0.0939 -1.01506,3.67622 -0.51841,6.23916 0.90708,4.68098 0.42121,-0.46042 1.06581,-2.52463 1.43244,-4.58713 z m 10.57598,2.69098 c 0,-0.79254 -0.45,-1.44098 -1,-1.44098 -0.55,0 -1,0.92656 -1,2.05902 0,1.13246 0.45,1.7809 1,1.44098 0.55,-0.33992 1,-1.26648 1,-2.05902 z m -84.33772,-2.69098 c -0.27741,-0.6875 -0.50439,-0.125 -0.50439,1.25 0,1.375 0.22698,1.9375 0.50439,1.25 0.27741,-0.6875 0.27741,-1.8125 0,-2.5 z m 121.60447,-0.49723 c -0.33889,-0.88315 -1.33541,-1.2011 -2.65466,-0.84699 -1.16165,0.3118 -2.47615,0.57306 -2.92111,0.58057 -0.44496,0.008 -0.57725,0.38865 -0.29399,0.84698 0.28327,0.45834 1.84192,0.83334 3.46368,0.83334 2.13038,0 2.79808,-0.39237 2.40608,-1.4139 z m -35.26675,-1.25277 c 0,-0.55 -0.45,-1 -1,-1 -0.55,0 -1,0.45 -1,1 0,0.55 0.45,1 1,1 0.55,0 1,-0.45 1,-1 z m 40,0.20089 c 0,-0.43951 1.575,-1.36864 3.5,-2.06473 1.925,-0.69609 3.5,-1.74159 3.5,-2.32333 0,-0.61743 0.69209,-0.48642 1.66262,0.31473 1.33256,1.09998 1.74859,1.11695 2.09565,0.0855 0.23817,-0.70782 1.51499,-2.57278 2.83738,-4.14435 1.32239,-1.57158 2.40435,-3.05201 2.40435,-3.28986 0,-1.36429 -7.09218,0.91013 -10.447,3.35028 -2.17085,1.57898 -4.99748,2.87088 -6.28139,2.87088 -2.77657,0 -3.99238,2.42659 -2.26104,4.51273 1.3306,1.60328 2.98943,1.98513 2.98943,0.68815 z m -48.31689,-3.38839 c -0.31922,-0.79773 -0.55618,-0.56078 -0.60416,0.60417 -0.0434,1.05416 0.19292,1.64479 0.52522,1.3125 0.33229,-0.3323 0.36781,-1.1948 0.0789,-1.91667 z m 98.31689,1.1875 c 0,-0.55 -0.45,-1 -1,-1 -0.55,0 -1,0.45 -1,1 0,0.55 0.45,1 1,1 0.55,0 1,-0.45 1,-1 z m -80.44113,-1.4682 c 1.63076,-1.23344 1.68089,-1.47328 0.31357,-1.5 -0.89515,-0.0175 -2.18775,-0.7068 -2.87244,-1.5318 -0.68469,-0.825 -2.08979,-1.5 -3.12244,-1.5 -1.03266,0 -1.87756,-0.45 -1.87756,-1 0,-0.55 -0.57985,-1 -1.28856,-1 -0.70871,0 -3.04051,-0.8932 -5.18178,-1.98488 -2.14128,-1.09168 -4.02423,-1.85388 -4.18434,-1.69377 -0.16011,0.16011 0.17431,1.97671 0.74315,4.0369 0.69091,2.50226 2.09283,4.39124 4.2229,5.69003 3.78103,2.30545 10.5138,2.55119 13.2475,0.48352 z m -19.75408,-4.85997 c 0.3424,-5.24834 -1.21802,-6.35566 -2.17979,-1.54683 -0.96787,4.83937 -0.7562,7.08486 0.625,6.63016 0.69862,-0.22998 1.38444,-2.47226 1.55479,-5.08333 z m 29.19521,2.72118 c 0,-0.21615 -0.675,-0.39301 -1.5,-0.39301 -0.825,0 -1.5,0.43588 -1.5,0.96862 0,0.53273 0.675,0.70959 1.5,0.39301 0.825,-0.31659 1.5,-0.75246 1.5,-0.96862 z m 77.42009,-0.26372 c 0.21391,-0.34611 -0.6931,-0.62929 -2.01558,-0.62929 -1.32248,0 -2.40451,0.52037 -2.40451,1.15638 0,1.14896 3.6535,0.71328 4.42009,-0.52709 z m -139.4354,-0.87929 c -0.028,-1.36867 -1.86631,-3.70172 -2.45386,-3.11417 -0.78775,0.78775 0.46709,3.86417 1.57616,3.86417 0.49115,0 0.88612,-0.3375 0.8777,-0.75 z m 61.01531,-5.28138 c 0,-3.41584 -0.42491,-3.64867 -7.75,-4.24654 -5.18304,-0.42303 -5.25,-0.39285 -5.25,2.36586 0,2.47152 0.49101,2.90432 4.25,3.74612 7.76059,1.73793 8.75,1.52699 8.75,-1.86544 z m -15,-2.31675 c 0,-1.77675 -0.98481,-2.79221 -4.04722,-4.17316 -2.22597,-1.00378 -4.44998,-2.53462 -4.94224,-3.40188 -0.78994,-1.39169 -1.08664,-1.34201 -2.527,0.42317 -1.63198,2 -1.63198,2 -1.17967,0 0.24878,-1.1 0.61056,-2.45 0.80397,-3 0.19342,-0.55 -0.45168,-2.98397 -1.43354,-5.40883 -1.59442,-3.93766 -1.94706,-4.24698 -3.29966,-2.89438 -2.40264,2.40264 0.84842,12.32182 5.40712,16.49743 5.1113,4.68176 11.21824,5.74747 11.21824,1.95765 z m 44.51287,-0.87731 c 0.54292,-1.22399 2.44269,-3.19946 4.2217,-4.38994 l 3.23457,-2.16451 -5.06639,-1.65713 c -5.03149,-1.64571 -5.09669,-1.63937 -9.46617,0.92132 -2.41989,1.41815 -4.84748,3.41495 -5.39464,4.43734 -0.88484,1.65333 -0.36161,2.0219 4.73161,3.333 3.14955,0.81076 5.95724,1.53514 6.23932,1.60974 0.28208,0.0746 0.95708,-0.86583 1.5,-2.08982 z m 13.99487,-0.13944 c 1.3461,-1.34611 1.26796,-1.67882 -0.72159,-3.07235 -1.22714,-0.85952 -3.17184,-1.56277 -4.32157,-1.56277 -2.00553,0 -7.46458,4.71313 -7.46458,6.44462 0,1.38751 10.88555,-0.18731 12.50774,-1.8095 z m -28.49095,-2.6665 c 0.59794,-1.11726 2.85583,-3.3126 5.01754,-4.87853 l 3.93038,-2.84715 -3.18176,-0.63635 c -2.98383,-0.59677 -3.07691,-0.7412 -1.4963,-2.32181 1.4967,-1.4967 2.27497,-1.54278 6.9494,-0.41145 2.89517,0.70071 7.28895,1.4966 9.76395,1.76866 2.475,0.27205 5.92477,1.14211 7.66615,1.93346 2.30292,1.04653 3.87062,1.17097 5.75,0.45643 3.12899,-1.18964 3.5492,-3.47305 0.45862,-2.49213 -1.40947,0.44734 -1.89908,0.3086 -1.45376,-0.41195 0.36932,-0.59756 0.20426,-1.95947 -0.36678,-3.02646 -0.76075,-1.42148 -0.70629,-2.05174 0.20376,-2.35805 0.96219,-0.32386 0.93281,-0.79262 -0.13043,-2.08067 -0.89221,-1.08084 -0.97969,-1.66262 -0.25,-1.66262 0.61734,0 1.12244,-0.83429 1.12244,-1.85398 0,-1.01968 1.07777,-3.01691 2.39505,-4.43828 1.31728,-1.42137 2.14228,-2.83708 1.83334,-3.14602 -0.30895,-0.30895 0.30078,-0.56252 1.35494,-0.56351 2.68018,-0.002 7.41667,-7.79253 7.41667,-12.19808 0,-4.53239 -2.63459,-7.02321 -6.59151,-6.23183 -2.28642,0.45729 -3.43414,0.0333 -5.30733,-1.96062 -2.26378,-2.40969 -2.33063,-2.83987 -1.2655,-8.14356 0.61849,-3.07971 1.99218,-6.81797 3.05263,-8.30724 1.06045,-1.48927 1.88005,-3.82131 1.82132,-5.18232 -0.0587,-1.36101 0.23791,-3.48706 0.6592,-4.72456 0.45753,-1.34398 0.36329,-2.25 -0.23403,-2.25 -0.55,0 -1.28565,0.9 -1.63478,2 -0.34913,1.1 -0.95135,2 -1.33827,2 -0.38693,0 -1.81129,2.0279 -3.16525,4.50645 -1.35397,2.47854 -3.23472,4.75178 -4.17947,5.05163 -0.94474,0.29985 -2.73381,2.20945 -3.9757,4.24355 -2.36658,3.87621 -4.66301,6.11297 -6.33109,6.16657 -0.54438,0.0175 0.26208,-1.129 1.79214,-2.54774 3.1575,-2.9278 2.96063,-5.3993 -0.73502,-9.22768 -2.0837,-2.15853 -2.53065,-2.23081 -6.93559,-1.12164 -2.5896,0.65207 -4.97529,0.91865 -5.30154,0.5924 -1.34927,-1.34927 -4.1364,1.5479 -5.80991,6.03929 -0.9831,2.63845 -2.78565,6.14717 -4.00566,7.79717 -3.24715,4.39158 -5.51464,9.10996 -5.51464,11.47532 0,1.14106 -0.85529,4.50811 -1.90065,7.48234 -1.04536,2.97424 -1.71257,5.59578 -1.4827,5.82566 0.22988,0.22988 0.74767,3.07267 1.15066,6.31732 l 0.73269,5.89936 4.90577,0.5 c 4.09849,0.41772 4.96013,0.86196 5.23604,2.69961 0.47043,3.13319 -1.00481,3.66044 -9.64686,3.4478 -8.77308,-0.21586 -13.83116,1.42748 -16.38355,5.32291 -1.91208,2.91821 -1.71056,3.06495 5.32436,3.8771 4.24566,0.49015 4.6045,0.32039 8.37322,-3.9611 2.16561,-2.46026 4.15255,-4.25812 4.41543,-3.99524 0.26288,0.26288 -0.69257,1.74033 -2.12322,3.28322 -4.37386,4.71701 -3.93752,5.12327 6.61363,6.1576 0.94315,0.0925 2.20404,-0.74602 2.80197,-1.86328 z m 1.98321,-11.96862 c 0,-0.55 0.45,-1 1,-1 0.55,0 1,0.45 1,1 0,0.55 -0.45,1 -1,1 -0.55,0 -1,-0.45 -1,-1 z m 7,-46 c 0,-0.55 0.47656,-1 1.05902,-1 0.58246,0 0.7809,0.45 0.44098,1 -0.33992,0.55 -0.81648,1 -1.05902,1 -0.24254,0 -0.44098,-0.45 -0.44098,-1 z m 8.8125,-2.68311 c 0.72187,-0.28887 1.58437,-0.25335 1.91667,0.0789 0.33229,0.3323 -0.25834,0.56864 -1.3125,0.52522 -1.16495,-0.048 -1.4019,-0.28494 -0.60417,-0.60416 z m 45.66644,61.64903 c -0.39904,-0.64566 0.30136,-0.86354 1.86471,-0.58005 2.66496,0.48325 4.51796,-1.92426 2.80188,-3.64034 -0.50602,-0.50602 -0.69854,-3.40961 -0.42784,-6.45243 0.55695,-6.26018 -0.70302,-9.50975 -4.32755,-11.1612 -2.44013,-1.1118 -3.33439,-4.1319 -1.22347,-4.1319 0.64166,0 0.87754,-0.28913 0.52416,-0.6425 -0.35337,-0.35338 -1.23517,-0.15063 -1.95955,0.45056 -1.4108,1.17086 -10.84408,0.69576 -13.61142,-0.68552 -2.07952,-1.03798 -7.1321,0.13383 -5.34347,1.23926 1.90659,1.17834 0.59023,2.40342 -2.24777,2.09189 -1.38601,-0.15215 -2.77351,0.13353 -3.08333,0.63484 -0.30983,0.50131 -0.0868,0.91147 0.49569,0.91147 0.58246,0 1.05902,0.9 1.05902,2 0,1.1 -0.45,2 -1,2 -0.55,0 -1,1.17748 -1,2.61663 0,2.2083 0.34537,2.52632 2.21312,2.03789 1.25434,-0.32802 2.87895,0.0238 3.75,0.81211 0.84529,0.76497 1.98688,1.47683 2.53688,1.58191 0.55,0.10508 2.07194,0.59861 3.38208,1.09673 1.31015,0.49811 3.17781,0.65311 4.15035,0.34444 1.28602,-0.40817 2.13636,0.27739 3.11792,2.51372 0.74231,1.69122 2.31963,3.32042 3.50517,3.62045 1.18553,0.30003 2.3809,1.4074 2.65638,2.46081 0.27547,1.05342 1.01955,1.91531 1.6535,1.91531 0.63395,0 0.86504,-0.46534 0.51354,-1.03408 z m -124.04748,-7.28394 c -0.55351,-1.44242 -4.6482,-2.68198 -8.85946,-2.68198 -1.1979,0 -4.03185,-1.36334 -6.29766,-3.02964 -5.42483,-3.98946 -6.64662,-2.05576 -1.59342,2.52185 2.10049,1.90281 5.09998,4.70798 6.66552,6.23372 2.5147,2.45077 2.77428,2.52827 2.22732,0.66495 -0.65868,-2.24393 0.1478,-5.39088 1.38154,-5.39088 0.40773,0 1.50825,1.9125 2.44561,4.25 l 1.70429,4.25 1.44278,-2.68024 c 0.79354,-1.47413 1.1911,-3.33613 0.88348,-4.13778 z m 33.95385,1.87951 c 2.99382,-3.92512 2.57047,-4.45435 -4.11149,-5.13976 -8.21964,-0.84313 -10.89471,4.0941 -3.87416,7.15033 4.47839,1.94956 5.08079,1.79789 7.98565,-2.01057 z m -28.79595,-0.0615 c 0.69288,-2.76069 1.55435,-3.02864 4.56203,-1.41898 2.49151,1.33342 3.23329,0.70634 2.37253,-2.00566 -0.41302,-1.30131 -1.50935,-2.07536 -2.93943,-2.07536 -1.68074,0 -2.70708,-0.98652 -3.90138,-3.75 -1.92176,-4.44679 -5.57459,-14.79675 -6.37323,-18.058 -0.36677,-1.49767 -1.07575,-2.11209 -2.01933,-1.75 -0.79977,0.3069 -2.09232,0.558 -2.87234,0.558 -1.03519,0 -1.41821,1.35038 -1.41821,5 0,2.75 -0.45,5 -1,5 -0.55,0 -1,-0.8449 -1,-1.87756 0,-1.03265 -0.5625,-2.34515 -1.25,-2.91665 -0.97804,-0.81303 -1.17461,0.0306 -0.90349,3.87756 0.51586,7.3195 -1.46804,6.01809 -2.88131,-1.89009 -1.06886,-5.98099 -1.01169,-7.20267 0.47124,-10.07034 0.92822,-1.79498 3.23474,-4.17639 5.12561,-5.29203 3.90477,-2.30387 3.92708,-2.36976 2.03217,-6.0017 -1.19916,-2.29842 -1.19039,-2.96073 0.0629,-4.75 1.35844,-1.93949 1.28831,-2.07919 -1.04371,-2.07919 -1.41041,0 -3.1446,0.92029 -3.97899,2.11155 -0.81344,1.16135 -5.33372,6.09585 -10.04505,10.96555 -9.70796,10.03426 -9.76088,10.3465 -3.12626,18.44318 3.0316,3.69967 14.7286,12.47972 16.62579,12.47972 0.42698,0 1.06197,-0.9 1.4111,-2 0.34913,-1.1 1.08907,-2 1.64431,-2 1.94051,0 6.88494,5.89627 7.49271,8.9351 0.74187,3.70935 2.098,3.96883 2.95234,0.5649 z m 18.55315,-6.75627 c 1.33901,-1.24095 3.20472,-2.10796 4.14603,-1.92668 2.31437,0.44571 2.10144,-0.752 -0.75491,-4.24619 -2.29521,-2.80775 -2.55792,-2.88016 -6.33913,-1.74728 l -3.94469,1.18186 1.61721,4.49728 c 0.88947,2.4735 1.89255,4.49728 2.22908,4.49728 0.33652,0 1.70741,-1.01532 3.04641,-2.25627 z m -26.14251,0.86326 c 0,-0.21616 -0.69837,-0.661 -1.55194,-0.98855 -0.88992,-0.34149 -1.29132,-0.17385 -0.94098,0.39301 0.58726,0.95021 2.49292,1.40545 2.49292,0.59554 z m 48.53212,-1.05596 c 1.90733,-0.79694 3.46788,-1.71277 3.46788,-2.03519 0,-0.32241 -0.9319,-0.0875 -2.07088,0.52209 -1.48292,0.79364 -2.93616,0.80666 -5.11853,0.0459 -3.10994,-1.08414 -7.81059,-0.51767 -7.81059,0.94124 0,2.20973 6.76397,2.51822 11.53212,0.52596 z m -36.09424,-2.80103 c -1.09009,-3.51947 -5.29136,-11.54141 -6.40493,-12.22964 -0.5528,-0.34165 -0.10992,1.46716 0.98417,4.01957 1.09409,2.55241 1.69329,5.11962 1.33156,5.70492 -0.41768,0.67581 -0.17436,0.76545 0.66675,0.24561 0.97534,-0.60279 1.147,-0.35614 0.65126,0.93574 -0.82596,2.15242 -0.0465,3.5738 1.95971,3.5738 1.10406,0 1.32157,-0.6031 0.81148,-2.25 z m 27.32664,-1.24265 c 1.24549,-0.35824 2.01858,-1.04929 1.71798,-1.53567 -0.3006,-0.48638 -1.17981,-0.64133 -1.95379,-0.34432 -0.77885,0.29887 -1.98831,-0.39044 -2.70852,-1.54368 -1.17461,-1.88084 -6.82019,-3.11261 -6.82019,-1.48805 0,1.8905 4.39808,6.4213 5.84468,6.02105 0.91043,-0.25189 2.67435,-0.75109 3.91984,-1.10933 z m -24.04725,-1.75735 c 0.64251,-0.83472 0.23566,-3.39226 -1.22462,-7.69822 l -2.18679,-6.44822 -1.72949,2.63955 c -1.66345,2.53873 -1.64086,2.83274 0.59121,7.69821 2.45404,5.3493 3.00732,5.81247 4.54969,3.80868 z m 7.81469,-3.94651 c 2.13274,-0.97175 2.51602,-1.67621 2.04029,-3.75 -0.32217,-1.40442 -0.8684,-4.02706 -1.21384,-5.82808 -0.45977,-2.3971 -1.06089,-3.14675 -2.24324,-2.79749 -0.88834,0.26241 -2.85267,0.77226 -4.36517,1.133 -3.28612,0.78376 -3.6172,3.55269 -1.06479,8.90515 1.82513,3.82734 2.82646,4.16918 6.84675,2.33742 z m 17.46804,-1.87301 c 0,-0.7024 -1.92922,-5.6872 -2.61683,-6.7615 -0.11653,-0.18206 -1.15042,0.17127 -2.29752,0.78518 -3.86461,2.06828 -1.89366,8.11412 2.37894,7.29736 1.39448,-0.26657 2.53541,-0.86104 2.53541,-1.32104 z m -9.90119,-5.95839 c -1.12412,-4.31469 -1.99755,-5.94566 -3.07315,-5.73851 -2.09354,0.40317 -2.46206,3.41408 -0.97089,7.93239 0.95117,2.88205 1.80529,3.83403 3.43993,3.83403 2.16596,0 2.16836,-0.0239 0.60411,-6.02791 z m 18.65119,2.5002 c 0,-1.97424 -0.39213,-2.40326 -1.79084,-1.95933 -0.98497,0.31262 -2.08027,0.10009 -2.43402,-0.47228 -0.35375,-0.57238 -1.56476,-1.04068 -2.69115,-1.04068 -1.45664,0 -1.87271,0.45673 -1.44098,1.58179 0.33385,0.86998 0.60699,2.21998 0.60699,3 0,0.98029 1.19654,1.41821 3.875,1.41821 3.478,0 3.875,-0.25897 3.875,-2.52771 z m 64.25,-0.97229 c 0,-1.91067 0.98989,-1.89581 3.77749,0.0567 3.34,2.33943 2.89909,-0.34539 -0.75452,-4.59447 l -2.97702,-3.46223 -2.00074,2.5 c -2.36033,2.94932 -2.45678,3.61695 -0.79521,5.50417 1.63972,1.8624 2.75,1.86072 2.75,-0.004 z m 12.04152,-5.58225 c 1.68867,-3.34524 2.87254,-6.60774 2.63082,-7.25 -0.24849,-0.66026 -0.76596,-0.29857 -1.19071,0.83225 -0.66557,1.77198 -4.2449,9.76166 -5.26392,11.75 -0.21141,0.4125 -0.12835,0.75 0.18456,0.75 0.31292,0 1.95058,-2.73701 3.63925,-6.08225 z m -135.18073,1.08225 c 0.50888,0 1.26907,0.7875 1.68931,1.75 0.62943,1.44158 0.86858,1.24747 1.35699,-1.10141 0.53102,-2.55376 1.42006,-3.1119 8.51648,-5.34665 5.07273,-1.59747 8.95234,-3.524 10.78291,-5.35457 1.64041,-1.64041 3.48571,-2.61898 4.32867,-2.29551 2.59639,0.99633 6.62798,-0.5663 6.26908,-2.42988 -0.35646,-1.85095 -3.9131,-2.91572 -10.36714,-3.10367 -3.33484,-0.0971 -4.58923,0.43986 -7,2.99653 -1.6154,1.71316 -4.96209,3.99105 -7.43709,5.06197 -6.46881,2.79902 -11.01519,7.48372 -10.93661,11.26936 0.0587,2.82997 0.12968,2.88889 0.96777,0.80383 0.49742,-1.2375 1.32075,-2.25 1.82963,-2.25 z M 470.55,410.62674 c -1.20652,-1.20653 -1.78148,0.78155 -1.00107,3.46152 l 0.81437,2.79657 0.38097,-2.84142 c 0.20954,-1.56278 0.12212,-3.10028 -0.19427,-3.41667 z m 8.40945,-0.679 c -0.008,-0.5846 -0.4012,-1.67187 -0.87283,-2.41616 -2.13564,-3.37026 -7.05939,3.22046 -5.48024,7.33564 0.53945,1.40578 1.04156,1.24684 3.4991,-1.10763 1.57811,-1.51192 2.86239,-3.22725 2.85397,-3.81185 z m 97.3673,1.15433 c 0.53991,-2.10711 0.47187,-2.09306 -1.3697,0.28276 -2.2556,2.90998 -2.61025,4.76605 -0.59035,3.08969 0.76556,-0.63537 1.64759,-2.15297 1.96005,-3.37245 z m -72.95199,0.51906 c -0.055,-0.67996 -0.1675,-2.8113 -0.25,-4.7363 -0.11929,-2.78333 -0.55952,-3.5 -2.15,-3.5 -2.11636,0 -2.63995,3.00887 -1.35705,7.79842 0.63767,2.38067 3.94538,2.76618 3.75705,0.43788 z m 6.14976,-3.54214 c 0.11962,-3.44452 -1.45438,-5.69416 -3.98402,-5.69416 -0.76583,0 -0.72017,6.43398 0.0601,8.4673 1.18824,3.09651 3.7838,1.26216 3.92392,-2.77314 z m -20.91658,0.96666 c 0.0733,-0.0884 0.44659,-1.62369 0.82964,-3.41165 0.87945,-4.105 -1.24996,-5.19797 -5.85176,-3.00352 -2.59319,1.2366 -3.17477,2.07735 -3.03805,4.39186 0.093,1.57437 0.22712,3.02507 0.29804,3.22378 0.11554,0.32372 7.43768,-0.80871 7.76213,-1.20047 z m 29.76051,-0.24438 c 0.37373,-0.97391 0.15024,-1.43108 -0.58051,-1.1875 -1.49484,0.49828 -2.31789,2.77106 -1.0035,2.77106 0.53699,0 1.24979,-0.7126 1.58401,-1.58356 z m -22.7886,-1.18175 c 0.6078,-0.40408 1.67894,-2.53469 2.38032,-4.73469 0.70138,-2.2 1.77909,-4.63309 2.39491,-5.40686 0.94061,-1.18186 0.47996,-1.29174 -2.88032,-0.68709 -4.71202,0.84789 -6.5,2.80597 -6.5,7.11841 0,4.26491 1.70478,5.63842 4.60509,3.71023 z m 93.82887,-12.23469 c 0.7007,0 2.4647,1.10351 3.92002,2.45225 l 2.64602,2.45225 0,-3.45225 c 0,-2.29986 -0.46946,-3.45225 -1.40638,-3.45225 -0.91405,0 -1.22329,-0.70014 -0.88337,-2 0.28766,-1.1 0.0311,-2 -0.57006,-2 -1.7346,0 -10.59292,9.10553 -13.13348,13.5 -2.14024,3.70204 -1.9227,3.57168 2.92038,-1.75 2.87809,-3.1625 5.80618,-5.75 6.50687,-5.75 z m -72.88774,8.75 c -2.98886,-9.55482 -3.82304,-11.80651 -4.22502,-11.40453 -0.73103,0.73103 2.82985,12.65453 3.77919,12.65453 0.46026,0 0.66088,-0.5625 0.44583,-1.25 z m -12.57802,-7.19113 c -0.0175,-0.58238 -0.6925,-0.18536 -1.5,0.88226 -0.80751,1.06762 -1.45389,2.41762 -1.4364,3 0.0175,0.58238 0.6925,0.18536 1.5,-0.88226 0.80751,-1.06762 1.45389,-2.41762 1.4364,-3 z m 8.0318,3.37539 c 0,-2.01359 -2.07171,-4.93426 -3.5,-4.93426 -1.69752,0 -3.85211,3.62125 -2.98723,5.02067 0.8199,1.32662 6.48723,1.25113 6.48723,-0.0864 z m -44.22917,-1.74676 c 0.22111,-0.66333 -0.52375,-1.1875 -1.6875,-1.1875 -2.07732,0 -2.69993,1.05007 -1.39583,2.35417 0.92647,0.92647 2.59622,0.29467 3.08333,-1.16667 z m 3.72917,-3.1875 c 0.33992,-0.55 0.16803,-1 -0.38197,-1 -0.55,0 -1.27811,0.45 -1.61803,1 -0.33992,0.55 -0.16803,1 0.38197,1 0.55,0 1.27811,-0.45 1.61803,-1 z m 102.45081,-0.26279 c 1.58629,0.99065 2.2403,0.92882 3.5,-0.33088 1.99764,-1.99764 1.96079,-2.50151 -0.12442,-1.70134 -1.30622,0.50125 -1.52045,0.2431 -0.97589,-1.176 0.43225,-1.12642 0.0588,-2.52417 -0.98138,-3.67361 -2.29334,-2.53412 -3.18208,-2.32777 -2.62078,0.6085 0.39113,2.04603 -0.14206,2.75623 -3.14394,4.18773 -2.26409,1.07967 -3.1793,1.99308 -2.44915,2.44434 0.64119,0.39628 1.99356,0.20355 3.00527,-0.42827 1.39657,-0.87217 2.30919,-0.85543 3.79029,0.0695 z m -94.45081,-6.16616 c 6.05,-2.85728 12.575,-5.92587 14.5,-6.81909 l 3.5,-1.62405 -5.58948,-0.064 c -4.95444,-0.0567 -5.71829,-0.34664 -6.72317,-2.5521 -1.12932,-2.4786 -0.73443,-4.78542 1.26222,-7.37334 3.43401,-4.45093 6.68731,-7.1513 8.72351,-7.24087 1.6769,-0.0738 1.34921,-0.33452 -1.17308,-0.93345 -2.04818,-0.48635 -3.89406,-0.44389 -4.45,0.10236 -1.25776,1.23585 -3.83579,1.20488 -3.06835,-0.0369 0.32983,-0.53367 -1.02414,-2.67117 -3.00881,-4.75 -2.83747,-2.97208 -3.35288,-3.24551 -2.41217,-1.27969 0.65798,1.375 1.88325,3.2875 2.72282,4.25 0.83957,0.9625 1.11924,1.74311 0.6215,1.73469 -1.81068,-0.0306 -3.34794,-1.61939 -4.71668,-4.87467 l -1.39825,-3.32544 -0.79128,4.35771 c -0.43521,2.39674 -0.70291,4.93258 -0.59488,5.6352 0.10802,0.70261 -1.15513,2.91712 -2.807,4.92113 -1.65187,2.004 -2.80804,3.95975 -2.56926,4.3461 0.23877,0.38635 -2.26763,1.46053 -5.5698,2.38707 -3.30216,0.92654 -5.742,2.10843 -5.42187,2.62641 0.32014,0.51799 1.10296,0.9418 1.73961,0.9418 2.21236,0 9.72442,3.27758 9.72442,4.24285 0,0.53412 -0.675,0.69798 -1.5,0.36414 -0.825,-0.33385 -2.175,-0.88013 -3,-1.21398 -1.18626,-0.48003 -1.5,0.23968 -1.5,3.44098 0,2.22639 -0.44758,4.3246 -0.99462,4.66269 -0.54704,0.33809 -1.48667,1.5341 -2.08806,2.65781 -1.02663,1.91828 -0.88949,1.99937 2.24462,1.32736 1.83593,-0.39366 8.28806,-3.05352 14.33806,-5.9108 z m -6.5,-5.38959 c 0,-1.20855 1.8972,-2.61759 2.5907,-1.9241 0.2517,0.2517 -0.22824,1.02686 -1.06653,1.72258 -0.95039,0.78875 -1.52417,0.86462 -1.52417,0.20152 z m 29.15914,8.87809 c 0.94624,-1.01566 1.53022,-2.03686 1.29774,-2.26933 -0.23247,-0.23248 -0.0135,-1.84931 0.48655,-3.59297 0.55309,-1.92851 0.54639,-3.39452 -0.0171,-3.74278 -0.50948,-0.31488 -0.92633,0.52395 -0.92633,1.86407 0,2.93716 -3.74835,6.2933 -9.25,8.28211 -0.9625,0.34794 -1.75,1.08764 -1.75,1.64379 0,1.64417 8.24355,-0.12873 10.15914,-2.18489 z m 22.75705,-0.96256 c 2.7976,-3.22613 2.64483,-5.09699 -0.41619,-5.09699 -1.375,0 -3.43661,-0.93661 -4.58136,-2.08136 -1.98262,-1.98262 -2.17238,-1.99898 -4,-0.34501 -3.91551,3.54349 -1.10119,10.0773 4.29683,9.97565 1.47181,-0.0277 3.52874,-1.10078 4.70072,-2.45229 z m -43.17189,-0.0592 c 1.11003,-1.77743 1.01983,-1.88613 -0.95795,-1.1545 -2.49344,0.92238 -3.62712,3.11667 -1.61023,3.11667 0.73853,0 1.89421,-0.88298 2.56818,-1.96217 z m 83.2557,-0.0378 c 0,-0.55 -0.47656,-1 -1.05902,-1 -0.58246,0 -0.7809,0.45 -0.44098,1 0.33992,0.55 0.81648,1 1.05902,1 0.24254,0 0.44098,-0.45 0.44098,-1 z m -53,-1.30887 c 0,-0.71988 -0.66145,-2.18238 -1.4699,-3.25 -1.32892,-1.75496 -1.35585,-1.62943 -0.28076,1.30887 1.27799,3.49286 1.75066,4.01695 1.75066,1.94113 z m 58.66228,-2.94113 c -0.27741,-0.6875 -0.50439,-0.125 -0.50439,1.25 0,1.375 0.22698,1.9375 0.50439,1.25 0.27741,-0.6875 0.27741,-1.8125 0,-2.5 z m -72.66228,1.35524 c 1.79404,-0.49904 2.5,-1.38477 2.5,-3.13663 0,-3.22641 -2.11391,-3.50922 -7.56479,-1.01206 l -4.43521,2.03187 4.65455,-0.24421 c 2.56,-0.13432 4.44595,0.0933 4.19098,0.50579 -0.25496,0.4125 -1.76045,0.75 -3.34553,0.75 -1.58508,0 -3.16008,0.45 -3.5,1 -0.69589,1.12598 3.61305,1.18644 7.5,0.10524 z m 29,-3.50741 c 0,-0.2212 -1.35,-0.87279 -3,-1.44799 -1.65,-0.57519 -3,-0.65221 -3,-0.17114 0,0.48106 0.7875,1.08045 1.75,1.33197 2.44866,0.63991 4.25,0.76161 4.25,0.28716 z m 42.70726,-6.83617 c -0.23919,-1.24391 -0.44398,-0.46166 -0.45508,1.73834 -0.0111,2.2 0.18461,3.21775 0.4349,2.26166 0.25029,-0.95609 0.25937,-2.75609 0.0202,-4 z m -52.70726,2.35386 c 0,-2.39292 -7.83016,-11.12659 -9.93709,-11.08372 -1.32763,0.027 -1.29947,0.23179 0.18709,1.36025 1.90388,1.44525 2.35345,3.60795 0.75,3.60795 -1.81081,0 -1.04175,2.17632 0.95343,2.69807 1.07439,0.28096 2.65028,1.57437 3.50199,2.87424 1.3793,2.10508 4.54458,2.48342 4.54458,0.54321 z m -12,-14.11552 c 0,-1.31306 -0.66667,-2 -1.94098,-2 -2.69635,0 -3.45943,1.66846 -1.33005,2.90813 2.59693,1.51187 3.27103,1.32472 3.27103,-0.90813 z m -6,-1 c 0,-0.55 -0.70156,-1 -1.55902,-1 -0.85746,0 -1.2809,0.45 -0.94098,1 0.33992,0.55 1.04148,1 1.55902,1 0.51754,0 0.94098,-0.45 0.94098,-1 z m 9,-0.55902 c 0,-0.85746 -0.45,-1.2809 -1,-0.94098 -0.55,0.33992 -1,1.04148 -1,1.55902 0,0.51754 0.45,0.94098 1,0.94098 0.55,0 1,-0.70156 1,-1.55902 z m 72.99607,119.34434 -2.08061,-4.28532 2.5373,3 c 2.6533,3.13715 3.32365,2.81925 1.44747,-0.68642 -0.79969,-1.49423 -0.79969,-1.86948 0,-1.37524 0.60487,0.37383 1.11408,0.0906 1.13157,-0.62932 0.0196,-0.80736 0.59447,-0.56511 1.5,0.63211 0.80751,1.06762 1.4682,1.37856 1.4682,0.69098 0,-0.68758 0.48921,-0.9478 1.08713,-0.57826 0.7558,0.46711 0.76872,0.9903 0.0424,1.71664 -0.72633,0.72633 -1.51464,0.65477 -2.58652,-0.23481 -1.34636,-1.11738 -1.4657,-0.89925 -0.94163,1.7211 0.95472,4.7736 -1.29283,4.79139 -3.60529,0.0285 z m 6.35026,-6.45216 c -0.36009,-1.00824 -0.8437,-2.28316 -1.07468,-2.83316 -0.23098,-0.55 0.30778,-0.1 1.19724,1 0.88946,1.1 1.82283,1.8875 2.07416,1.75 0.25132,-0.1375 0.4907,0.0762 0.53195,0.475 0.16906,1.63427 -2.12257,1.30519 -2.72867,-0.39184 z"
       id="path3250"
       inkscape:connector-curvature="0"
       sodipodi:nodetypes="sssssssssssssscsssscscsssssssscssccssscssssssssccsssssscsssssscsssscccsscsssssscsssssssssssssssccsssssssscssssssssscscscssscsssscccssssssssssscscccsccsssssssssssssccssscsssssssssssssssssccssssssssssssssssssssssssssssssssscsssssscssccsssscssscsccssssssscsssssssssscscssssssssssssssssssscsscssssssssccsssssssssssssssssssssssssssscsssssssscssssssscssssssscscssssscsssssssssssssscsscsssssscssssssssssssccsssscssccssssssssssscssssssssssssssssssscccccsssssssssssssssssscsssssssssscsscsssssssssscsssssscssssssssssssscssssssscssssssscssssscssssssscsssssssscscsssssssscssssssssssscccccsssssscsssscssssscssssscsssssssssscssssssssssssssssssssssscssssssssssssscssssssssscsssssscssssssssscssscsssssssssssssssscsssssssssssssscsssssssssssssssssssscsssscsscssscssssssssssssscsssscsssssssssssscssssssscssccscscssssssssssssscssscsssscccscssscsscssscscscscssssssssssccsssssccssssssssscssssssssssssssssssssscscsssssscscssccscsssssssssssssssssssccssscssssssccsssccs"
       inkscape:export-filename="/Users/lhs/Documents/doubt/goblin.png"
       inkscape:export-xdpi="179.89999"
       inkscape:export-ydpi="179.89999" />
  </g>
</svg>
